<svg width="25" height="24" viewBox="0 0 25 24" fill="none" xmlns="http://www.w3.org/2000/svg"><path fill-rule="evenodd" clip-rule="evenodd" d="M21.5 18C22.0523 18 22.5 18.4477 22.5 19C22.5 19.5523 22.0523 20 21.5 20H3.5C2.94772 20 2.5 19.5523 2.5 19C2.5 18.4477 2.94772 18 3.5 18H21.5ZM21.5 11C22.0523 11 22.5 11.4477 22.5 12C22.5 12.5523 22.0523 13 21.5 13H3.5C2.94772 13 2.5 12.5523 2.5 12C2.5 11.4477 2.94772 11 3.5 11H21.5ZM21.5 4C22.0523 4 22.5 4.44772 22.5 5C22.5 5.55228 22.0523 6 21.5 6H3.5C2.94772 6 2.5 5.55228 2.5 5C2.5 4.44772 2.94772 4 3.5 4H21.5Z" fill="#171717"></path></svg>
